<svg width="24" height="23" viewBox="0 0 24 23" fill="none" xmlns="http://www.w3.org/2000/svg">
<path d="M23.1495 17.4173C23.7417 16.1888 24.0323 14.8369 23.9971 13.4736C23.962 12.1103 23.602 10.7751 22.9471 9.57888C22.2923 8.38266 21.3615 7.35996 20.232 6.59573C19.1025 5.83149 17.807 5.34779 16.4531 5.1848C16.0026 4.13733 15.3476 3.19029 14.5265 2.39911C13.7054 1.60794 12.7347 0.988545 11.6713 0.577197C10.6078 0.16585 9.47296 -0.0291805 8.3332 0.00352738C7.19343 0.0362352 6.07164 0.296024 5.03353 0.76768C3.99542 1.23934 3.06184 1.91338 2.28748 2.75034C1.51311 3.58729 0.913524 4.57034 0.52382 5.64192C0.134117 6.71349 -0.0378666 7.85205 0.017941 8.99092C0.0737487 10.1298 0.356226 11.2461 0.84883 12.2744L0.0699044 14.9219C-0.0171862 15.2175 -0.0230095 15.531 0.0530471 15.8296C0.129104 16.1282 0.284228 16.4008 0.502101 16.6186C0.719974 16.8365 0.99254 16.9916 1.29112 17.0677C1.58971 17.1437 1.90327 17.1379 2.19883 17.0508L4.84632 16.2719C5.69643 16.6803 6.60784 16.9464 7.54417 17.0594C7.99907 18.1253 8.66539 19.0878 9.50284 19.8888C10.3403 20.6899 11.3315 21.3128 12.4165 21.7199C13.5015 22.127 14.6578 22.3099 15.8155 22.2574C16.9732 22.205 18.1082 21.9183 19.152 21.4147L21.7995 22.1937C22.0949 22.2807 22.4083 22.2865 22.7068 22.2104C23.0053 22.1344 23.2777 21.9794 23.4956 21.7617C23.7134 21.544 23.8685 21.2716 23.9447 20.9731C24.0209 20.6747 24.0152 20.3613 23.9284 20.0658L23.1495 17.4173ZM4.92775 14.4966C4.84584 14.4968 4.76435 14.5083 4.6856 14.5308L1.71347 15.4073L2.58882 12.433C2.65108 12.2181 2.62686 11.9874 2.52133 11.7901C1.74595 10.34 1.51748 8.6596 1.87758 7.05514C2.23767 5.45068 3.16235 4.02905 4.48305 3.04939C5.80374 2.06973 7.43251 1.5973 9.07243 1.7182C10.7124 1.8391 12.2542 2.54529 13.417 3.70804C14.5797 4.87079 15.2859 6.41266 15.4068 8.05259C15.5277 9.69251 15.0553 11.3213 14.0756 12.642C13.096 13.9627 11.6743 14.8873 10.0699 15.2474C8.46541 15.6075 6.78497 15.3791 5.33489 14.6037C5.21019 14.5347 5.07026 14.4979 4.92775 14.4966ZM21.4052 17.5748L22.2848 20.5501L19.3106 19.6747C19.0957 19.6125 18.865 19.6367 18.6677 19.7422C17.0893 20.5851 15.2442 20.7781 13.5255 20.2801C11.8069 19.7821 10.3507 18.6326 9.46737 17.0765C10.641 16.9541 11.7766 16.5903 12.803 16.0082C13.8295 15.4261 14.7245 14.6382 15.432 13.6939C16.1396 12.7495 16.6443 11.6692 16.9146 10.5205C17.1849 9.37191 17.2149 8.17983 17.0027 7.01908C18.0253 7.26011 18.9788 7.73288 19.7896 8.4009C20.6005 9.06891 21.247 9.91431 21.6792 10.8718C22.1115 11.8294 22.318 12.8734 22.2827 13.9234C22.2475 14.9734 21.9714 16.0012 21.4759 16.9276C21.3692 17.1261 21.345 17.3586 21.4084 17.5748H21.4052Z" fill="white"/>
</svg>
