<svg width="19" height="22" viewBox="0 0 19 22" fill="none" xmlns="http://www.w3.org/2000/svg">
<path d="M9.88469 20.9466C9.69972 21.0794 9.47773 21.1509 9.25 21.1509C9.02227 21.1509 8.80028 21.0794 8.61531 20.9466C3.14229 17.0455 -2.66622 9.02131 3.20576 3.22301C4.81779 1.63726 6.98875 0.749007 9.25 0.750001C11.5167 0.750001 13.6917 1.63969 15.2942 3.22187C21.1662 9.02018 15.3577 17.0433 9.88469 20.9466Z" stroke="white" stroke-width="1.5" stroke-linecap="round" stroke-linejoin="round"/>
<path d="M9.25111 10.9501C9.85228 10.9501 10.4288 10.7113 10.8539 10.2862C11.279 9.86109 11.5178 9.28453 11.5178 8.68336C11.5178 8.08218 11.279 7.50563 10.8539 7.08054C10.4288 6.65544 9.85228 6.41663 9.25111 6.41663C8.64993 6.41663 8.07338 6.65544 7.64829 7.08054C7.22319 7.50563 6.98438 8.08218 6.98438 8.68336C6.98438 9.28453 7.22319 9.86109 7.64829 10.2862C8.07338 10.7113 8.64993 10.9501 9.25111 10.9501Z" stroke="white" stroke-width="1.5" stroke-linecap="round" stroke-linejoin="round"/>
</svg>
