<svg width="24" height="24" viewBox="0 0 24 24" fill="none" xmlns="http://www.w3.org/2000/svg">
<path d="M11.9358 0.500003C9.8672 0.500617 7.83747 1.06233 6.06283 2.12532C4.2882 3.18831 2.83513 4.71276 1.8584 6.53629C0.881669 8.35983 0.417859 10.4141 0.516371 12.4804C0.614884 14.5467 1.27203 16.5476 2.41781 18.27L0.5 23.3717L6.92289 22.2103C8.46926 22.9661 10.1663 23.363 11.8874 23.3715C13.6085 23.3801 15.3094 23 16.8632 22.2597C18.417 21.5193 19.7836 20.4378 20.8612 19.0958C21.9388 17.7537 22.6996 16.1857 23.0868 14.5087C23.474 12.8317 23.4777 11.0889 23.0976 9.41022C22.7175 7.73157 21.9634 6.16037 20.8915 4.81375C19.8196 3.46714 18.4575 2.37984 16.9069 1.63293C15.3562 0.886018 13.657 0.498752 11.9358 0.500003Z" stroke="white" stroke-linecap="round" stroke-linejoin="round"/>
<path d="M6.0791 13.7115C6.96698 16.9079 10.5185 18.8612 13.7148 17.9733C15.6682 17.263 17.2663 15.6649 17.7991 13.7115M7.94364 9.27215C7.8259 9.27215 7.71298 9.22538 7.62973 9.14213C7.54647 9.05887 7.4997 8.94596 7.4997 8.82822C7.4997 8.71048 7.54647 8.59756 7.62973 8.5143C7.71298 8.43105 7.8259 8.38428 7.94364 8.38428C8.06138 8.38428 8.1743 8.43105 8.25755 8.5143C8.34081 8.59756 8.38758 8.71048 8.38758 8.82822C8.38758 8.94596 8.34081 9.05887 8.25755 9.14213C8.1743 9.22538 8.06138 9.27215 7.94364 9.27215ZM15.9345 9.27215C15.8168 9.27215 15.7039 9.22538 15.6206 9.14213C15.5374 9.05887 15.4906 8.94596 15.4906 8.82822C15.4906 8.71048 15.5374 8.59756 15.6206 8.5143C15.7039 8.43105 15.8168 8.38428 15.9345 8.38428C16.0523 8.38428 16.1652 8.43105 16.2484 8.5143C16.3317 8.59756 16.3785 8.71048 16.3785 8.82822C16.3785 8.94596 16.3317 9.05887 16.2484 9.14213C16.1652 9.22538 16.0523 9.27215 15.9345 9.27215Z" stroke="white" stroke-linecap="round" stroke-linejoin="round"/>
</svg>
