<svg width="18" height="23" viewBox="0 0 18 23" fill="none" xmlns="http://www.w3.org/2000/svg">
<path d="M4.567 0.11943L3.55631 0.423903C2.6564 0.69529 1.85273 1.21811 1.23991 1.93082C0.627092 2.64353 0.230621 3.51647 0.097164 4.44689C-0.321486 7.36194 0.614486 10.7703 2.87125 14.6792C5.12238 18.5781 7.60045 21.09 10.328 22.1895C11.2044 22.5427 12.1638 22.6368 13.0921 22.4606C14.0204 22.2845 14.8786 21.8454 15.5647 21.1957L16.3287 20.4712C16.8248 20.0017 17.1335 19.368 17.1976 18.6879C17.2616 18.0079 17.0766 17.3277 16.6768 16.7738L14.7654 14.1238C14.507 13.766 14.1431 13.4981 13.7248 13.3575C13.3064 13.217 12.8546 13.2109 12.4325 13.34L9.54146 14.2239L9.46675 14.238C9.14819 14.2845 8.41237 13.5952 7.49614 12.008C6.53761 10.3475 6.34027 9.37625 6.60386 9.12534L8.07407 7.7538C8.61117 7.25228 8.97805 6.5954 9.12338 5.87507C9.26871 5.15474 9.18522 4.40699 8.88459 3.73645L7.95144 1.66294C7.67084 1.03897 7.17291 0.538331 6.55048 0.254345C5.92804 -0.0296399 5.22217 -0.0775916 4.567 0.11943ZM6.6687 2.24087L7.59904 4.31439C7.77958 4.71657 7.82991 5.16513 7.74296 5.59732C7.65602 6.02951 7.43616 6.42372 7.11414 6.7248L5.6397 8.09775C4.69527 8.99143 5.0082 10.5166 6.27684 12.7128C7.46935 14.7792 8.55756 15.7998 9.72753 15.6222L9.90232 15.5855L12.8456 14.6876C12.9862 14.6444 13.1369 14.6463 13.2765 14.6931C13.416 14.7398 13.5374 14.8291 13.6237 14.9484L15.5351 17.5984C15.7352 17.8753 15.828 18.2155 15.7961 18.5557C15.7642 18.8959 15.6098 19.2129 15.3617 19.4478L14.5963 20.1724C14.1062 20.6361 13.4933 20.9495 12.8304 21.0752C12.1675 21.2009 11.4824 21.1336 10.8566 20.8814C8.46312 19.9172 6.20072 17.6238 4.09337 13.9744C1.98039 10.3165 1.12476 7.20547 1.49267 4.64705C1.5879 3.98233 1.87107 3.35866 2.30885 2.84946C2.74662 2.34026 3.32077 1.96675 3.96369 1.77289L4.97437 1.46841C5.30204 1.36995 5.65434 1.39403 5.96557 1.53616C6.2768 1.67828 6.52571 1.92876 6.66588 2.24087" fill="white"/>
</svg>
