<svg width="24" height="24" viewBox="0 0 24 24" fill="none" xmlns="http://www.w3.org/2000/svg">
<circle cx="12.0804" cy="12.211" r="10.5804" stroke="white"/>
<path d="M14.6363 9.36399L7.57758 15.4083C7.47686 15.4946 7.41452 15.6173 7.40428 15.7495C7.39405 15.8817 7.43675 16.0126 7.523 16.1133C7.60925 16.214 7.73198 16.2764 7.8642 16.2866C7.99641 16.2968 8.12727 16.2541 8.228 16.1679L15.2868 10.1236L14.888 15.2651C14.8777 15.3974 14.9205 15.5285 15.0069 15.6293C15.0932 15.7302 15.2161 15.7926 15.3485 15.8028C15.4809 15.8131 15.6119 15.7703 15.7127 15.684C15.8136 15.5976 15.876 15.4747 15.8863 15.3423L16.3775 8.99737C16.3827 8.93181 16.3748 8.86587 16.3545 8.80333C16.3341 8.7408 16.3016 8.68289 16.2588 8.63294C16.216 8.58298 16.1638 8.54196 16.1052 8.51221C16.0465 8.48247 15.9826 8.46458 15.917 8.45959L9.57203 7.96836C9.43965 7.95812 9.30862 8.00087 9.20776 8.08723C9.10691 8.17359 9.04449 8.29648 9.03424 8.42886C9.024 8.56124 9.06675 8.69227 9.15311 8.79312C9.23947 8.89398 9.36236 8.95639 9.49474 8.96664L14.6363 9.36399Z" fill="white"/>
</svg>
